<?xml version="1.0" standalone="no"?>
<!DOCTYPE svg PUBLIC "-//W3C//DTD SVG 20010904//EN"
 "http://www.w3.org/TR/2001/REC-SVG-20010904/DTD/svg10.dtd">
<svg version="1.0" xmlns="http://www.w3.org/2000/svg"
 width="190.000000pt" height="181.000000pt" viewBox="0 0 190.000000 181.000000"
 preserveAspectRatio="xMidYMid meet">

<g transform="translate(0.000000,181.000000) scale(0.100000,-0.100000)"
fill="#000000" stroke="none">
<path d="M917 1754 c-4 -4 -7 -19 -7 -33 -1 -22 -54 -65 -389 -311 -328 -240
-394 -285 -418 -282 -17 2 -35 -3 -42 -12 -18 -22 -9 -60 17 -71 24 -11 12 24
221 -632 81 -254 87 -280 73 -296 -12 -14 -13 -22 -4 -42 14 -31 51 -33 77 -5
18 19 31 20 505 20 474 0 487 -1 505 -20 26 -28 63 -26 77 5 9 20 8 28 -4 42
-14 16 -8 42 73 296 209 656 197 621 221 632 26 11 35 49 17 71 -7 9 -25 14
-41 12 -25 -3 -92 43 -418 282 -347 255 -389 288 -392 315 -2 25 -8 30 -33 33
-17 2 -34 0 -38 -4z m-85 -369 l-97 -290 -294 -3 c-162 -1 -299 2 -303 6 -10
10 774 592 784 583 5 -4 -36 -137 -90 -296z m561 0 c219 -160 375 -281 370
-286 -5 -5 -142 -8 -304 -7 l-294 3 -97 289 c-54 159 -95 293 -92 298 3 5 13
3 22 -5 10 -7 187 -139 395 -292z m-342 8 c50 -153 94 -284 97 -290 3 -10 -41
-13 -198 -13 -157 0 -201 3 -198 13 3 6 47 137 97 290 51 152 96 277 101 277
5 0 50 -125 101 -277z m-324 -325 c-2 -7 -28 -86 -58 -176 -36 -109 -58 -161
-66 -158 -22 9 -472 331 -473 339 0 4 135 7 301 7 237 0 300 -3 296 -12z m486
-161 c31 -95 57 -178 57 -184 0 -19 -310 -235 -328 -228 -31 12 -312 217 -312
228 0 6 26 89 57 184 l58 173 205 0 205 0 58 -173z m557 166 c0 -8 -450 -330
-473 -338 -8 -4 -29 44 -66 157 -30 90 -56 169 -58 176 -4 9 59 12 296 12 166
0 301 -3 301 -7z m-1400 -193 l239 -169 -96 -286 c-59 -177 -99 -285 -106
-282 -9 3 -294 868 -296 900 -2 19 38 -5 259 -163z m1419 163 c-2 -32 -287
-897 -296 -900 -7 -3 -47 105 -106 282 l-95 285 236 169 c218 156 263 184 261
164z m-1001 -458 c78 -55 140 -104 138 -110 -7 -24 -496 -362 -496 -342 0 3
177 533 185 555 6 16 -1 20 173 -103z m587 -165 c48 -146 90 -271 93 -277 2
-7 -1 -13 -7 -13 -15 0 -491 338 -491 348 1 12 305 221 311 214 4 -4 46 -126
94 -272z m-169 -132 c134 -95 244 -176 244 -180 0 -5 -225 -8 -500 -8 -275 0
-500 3 -500 8 1 10 483 351 499 351 7 1 123 -77 257 -171z"/>
</g>
</svg>
